<mxfile host="app.diagrams.net" agent="Mozilla/5.0 (Windows NT 10.0; Win64; x64) AppleWebKit/537.36 (KHTML, like Gecko) Chrome/133.0.0.0 Safari/537.36" version="26.0.10">
  <diagram name="Page-1" id="QGjMv8LrLS21k3CkNhZE">
    <mxGraphModel dx="2463" dy="1270" grid="1" gridSize="10" guides="1" tooltips="1" connect="1" arrows="1" fold="1" page="1" pageScale="1" pageWidth="827" pageHeight="1169" math="0" shadow="0">
      <root>
        <mxCell id="0" />
        <mxCell id="1" parent="0" />
        <mxCell id="Xr2quWgWzoAM4Jd-oPhX-65" style="edgeStyle=orthogonalEdgeStyle;rounded=0;orthogonalLoop=1;jettySize=auto;html=1;entryX=0;entryY=0.5;entryDx=0;entryDy=0;fontFamily=Helvetica;exitX=1;exitY=0.5;exitDx=0;exitDy=0;" parent="1" source="G61eTxJS0A9dMVI_lam1-1" target="Xr2quWgWzoAM4Jd-oPhX-64" edge="1">
          <mxGeometry relative="1" as="geometry">
            <mxPoint x="320" y="1430" as="sourcePoint" />
          </mxGeometry>
        </mxCell>
        <mxCell id="Xr2quWgWzoAM4Jd-oPhX-73" style="edgeStyle=orthogonalEdgeStyle;rounded=0;orthogonalLoop=1;jettySize=auto;html=1;entryX=0;entryY=0.5;entryDx=0;entryDy=0;fontFamily=Helvetica;" parent="1" target="Xr2quWgWzoAM4Jd-oPhX-72" edge="1">
          <mxGeometry relative="1" as="geometry">
            <mxPoint x="320" y="1430" as="sourcePoint" />
          </mxGeometry>
        </mxCell>
        <mxCell id="Xr2quWgWzoAM4Jd-oPhX-75" style="edgeStyle=orthogonalEdgeStyle;rounded=0;orthogonalLoop=1;jettySize=auto;html=1;entryX=0;entryY=0.5;entryDx=0;entryDy=0;fontFamily=Helvetica;exitX=1;exitY=0.5;exitDx=0;exitDy=0;" parent="1" source="G61eTxJS0A9dMVI_lam1-1" target="Xr2quWgWzoAM4Jd-oPhX-74" edge="1">
          <mxGeometry relative="1" as="geometry">
            <mxPoint x="320" y="1430" as="sourcePoint" />
          </mxGeometry>
        </mxCell>
        <mxCell id="G61eTxJS0A9dMVI_lam1-27" style="edgeStyle=orthogonalEdgeStyle;rounded=0;orthogonalLoop=1;jettySize=auto;html=1;entryX=0;entryY=0.5;entryDx=0;entryDy=0;" edge="1" parent="1" source="Xr2quWgWzoAM4Jd-oPhX-3" target="Xr2quWgWzoAM4Jd-oPhX-68">
          <mxGeometry relative="1" as="geometry" />
        </mxCell>
        <mxCell id="G61eTxJS0A9dMVI_lam1-28" style="edgeStyle=orthogonalEdgeStyle;rounded=0;orthogonalLoop=1;jettySize=auto;html=1;entryX=0;entryY=0.5;entryDx=0;entryDy=0;" edge="1" parent="1" source="Xr2quWgWzoAM4Jd-oPhX-3" target="Xr2quWgWzoAM4Jd-oPhX-85">
          <mxGeometry relative="1" as="geometry" />
        </mxCell>
        <mxCell id="Xr2quWgWzoAM4Jd-oPhX-3" value="&lt;div&gt;&lt;font style=&quot;font-size: 14px;&quot;&gt;Transférer les capots&lt;/font&gt;&lt;/div&gt;" style="rounded=1;whiteSpace=wrap;html=1;labelBackgroundColor=default;labelBorderColor=none;textShadow=0;fillColor=#dae8fc;strokeColor=#6c8ebf;fontFamily=Helvetica;" parent="1" vertex="1">
          <mxGeometry x="570" y="340" width="130" height="60" as="geometry" />
        </mxCell>
        <mxCell id="Xr2quWgWzoAM4Jd-oPhX-61" style="edgeStyle=orthogonalEdgeStyle;rounded=0;orthogonalLoop=1;jettySize=auto;html=1;entryX=0;entryY=0.5;entryDx=0;entryDy=0;fontFamily=Helvetica;" parent="1" source="Xr2quWgWzoAM4Jd-oPhX-5" target="Xr2quWgWzoAM4Jd-oPhX-60" edge="1">
          <mxGeometry relative="1" as="geometry" />
        </mxCell>
        <mxCell id="Xr2quWgWzoAM4Jd-oPhX-5" value="&lt;span style=&quot;font-size: 14px;&quot;&gt;Contrôler débit de colle&lt;/span&gt;" style="rounded=1;whiteSpace=wrap;html=1;labelBackgroundColor=default;labelBorderColor=none;textShadow=0;fillColor=#dae8fc;strokeColor=#6c8ebf;fontFamily=Helvetica;" parent="1" vertex="1">
          <mxGeometry x="331.5" y="1050" width="181" height="60" as="geometry" />
        </mxCell>
        <mxCell id="Xr2quWgWzoAM4Jd-oPhX-63" style="edgeStyle=orthogonalEdgeStyle;rounded=0;orthogonalLoop=1;jettySize=auto;html=1;entryX=0;entryY=0.5;entryDx=0;entryDy=0;fontFamily=Helvetica;" parent="1" source="Xr2quWgWzoAM4Jd-oPhX-6" target="Xr2quWgWzoAM4Jd-oPhX-62" edge="1">
          <mxGeometry relative="1" as="geometry" />
        </mxCell>
        <mxCell id="Xr2quWgWzoAM4Jd-oPhX-6" value="&lt;span style=&quot;font-size: 14px;&quot;&gt;Contrôler vitesse table/aiguille&lt;/span&gt;" style="rounded=1;whiteSpace=wrap;html=1;labelBackgroundColor=default;labelBorderColor=none;textShadow=0;fillColor=#dae8fc;strokeColor=#6c8ebf;fontFamily=Helvetica;" parent="1" vertex="1">
          <mxGeometry x="330.5" y="1130" width="180" height="60" as="geometry" />
        </mxCell>
        <mxCell id="Xr2quWgWzoAM4Jd-oPhX-67" style="edgeStyle=orthogonalEdgeStyle;rounded=0;orthogonalLoop=1;jettySize=auto;html=1;entryX=0;entryY=0.5;entryDx=0;entryDy=0;fontFamily=Helvetica;" parent="1" source="Xr2quWgWzoAM4Jd-oPhX-14" target="Xr2quWgWzoAM4Jd-oPhX-66" edge="1">
          <mxGeometry relative="1" as="geometry" />
        </mxCell>
        <mxCell id="Xr2quWgWzoAM4Jd-oPhX-14" value="&lt;font style=&quot;font-size: 14px;&quot;&gt;FC2 :&amp;nbsp;S’assurer des conditions expérimentales constantes&lt;/font&gt;" style="rounded=1;whiteSpace=wrap;html=1;labelBackgroundColor=default;labelBorderColor=none;textShadow=0;fillColor=#dae8fc;strokeColor=#6c8ebf;fontFamily=Helvetica;" parent="1" vertex="1">
          <mxGeometry x="330" y="495" width="200" height="60" as="geometry" />
        </mxCell>
        <mxCell id="G61eTxJS0A9dMVI_lam1-7" style="edgeStyle=orthogonalEdgeStyle;rounded=0;orthogonalLoop=1;jettySize=auto;html=1;entryX=0;entryY=0.5;entryDx=0;entryDy=0;" edge="1" parent="1" source="Xr2quWgWzoAM4Jd-oPhX-43" target="G61eTxJS0A9dMVI_lam1-6">
          <mxGeometry relative="1" as="geometry" />
        </mxCell>
        <mxCell id="G61eTxJS0A9dMVI_lam1-12" style="edgeStyle=orthogonalEdgeStyle;rounded=0;orthogonalLoop=1;jettySize=auto;html=1;entryX=0;entryY=0.5;entryDx=0;entryDy=0;" edge="1" parent="1" source="Xr2quWgWzoAM4Jd-oPhX-43" target="G61eTxJS0A9dMVI_lam1-11">
          <mxGeometry relative="1" as="geometry" />
        </mxCell>
        <mxCell id="G61eTxJS0A9dMVI_lam1-20" style="edgeStyle=orthogonalEdgeStyle;rounded=0;orthogonalLoop=1;jettySize=auto;html=1;entryX=0;entryY=0.5;entryDx=0;entryDy=0;" edge="1" parent="1" source="Xr2quWgWzoAM4Jd-oPhX-43" target="G61eTxJS0A9dMVI_lam1-16">
          <mxGeometry relative="1" as="geometry" />
        </mxCell>
        <mxCell id="G61eTxJS0A9dMVI_lam1-33" style="edgeStyle=orthogonalEdgeStyle;rounded=0;orthogonalLoop=1;jettySize=auto;html=1;entryX=0;entryY=0.5;entryDx=0;entryDy=0;" edge="1" parent="1" source="Xr2quWgWzoAM4Jd-oPhX-43" target="Xr2quWgWzoAM4Jd-oPhX-5">
          <mxGeometry relative="1" as="geometry" />
        </mxCell>
        <mxCell id="G61eTxJS0A9dMVI_lam1-34" style="edgeStyle=orthogonalEdgeStyle;rounded=0;orthogonalLoop=1;jettySize=auto;html=1;entryX=0;entryY=0.5;entryDx=0;entryDy=0;" edge="1" parent="1" source="Xr2quWgWzoAM4Jd-oPhX-43" target="Xr2quWgWzoAM4Jd-oPhX-6">
          <mxGeometry relative="1" as="geometry" />
        </mxCell>
        <mxCell id="G61eTxJS0A9dMVI_lam1-36" style="edgeStyle=orthogonalEdgeStyle;rounded=0;orthogonalLoop=1;jettySize=auto;html=1;entryX=0;entryY=0.5;entryDx=0;entryDy=0;" edge="1" parent="1" source="Xr2quWgWzoAM4Jd-oPhX-43" target="Xr2quWgWzoAM4Jd-oPhX-14">
          <mxGeometry relative="1" as="geometry" />
        </mxCell>
        <mxCell id="G61eTxJS0A9dMVI_lam1-37" style="edgeStyle=orthogonalEdgeStyle;rounded=0;orthogonalLoop=1;jettySize=auto;html=1;entryX=0;entryY=0.5;entryDx=0;entryDy=0;" edge="1" parent="1" source="Xr2quWgWzoAM4Jd-oPhX-43" target="Xr2quWgWzoAM4Jd-oPhX-76">
          <mxGeometry relative="1" as="geometry" />
        </mxCell>
        <mxCell id="G61eTxJS0A9dMVI_lam1-39" style="edgeStyle=orthogonalEdgeStyle;rounded=0;orthogonalLoop=1;jettySize=auto;html=1;entryX=0;entryY=0.5;entryDx=0;entryDy=0;" edge="1" parent="1" source="Xr2quWgWzoAM4Jd-oPhX-43" target="G61eTxJS0A9dMVI_lam1-38">
          <mxGeometry relative="1" as="geometry" />
        </mxCell>
        <mxCell id="G61eTxJS0A9dMVI_lam1-43" style="edgeStyle=orthogonalEdgeStyle;rounded=0;orthogonalLoop=1;jettySize=auto;html=1;entryX=0;entryY=0.5;entryDx=0;entryDy=0;" edge="1" parent="1" source="Xr2quWgWzoAM4Jd-oPhX-43" target="G61eTxJS0A9dMVI_lam1-42">
          <mxGeometry relative="1" as="geometry" />
        </mxCell>
        <mxCell id="G61eTxJS0A9dMVI_lam1-47" style="edgeStyle=orthogonalEdgeStyle;rounded=0;orthogonalLoop=1;jettySize=auto;html=1;entryX=0;entryY=0.5;entryDx=0;entryDy=0;" edge="1" parent="1" source="Xr2quWgWzoAM4Jd-oPhX-43" target="G61eTxJS0A9dMVI_lam1-46">
          <mxGeometry relative="1" as="geometry" />
        </mxCell>
        <mxCell id="G61eTxJS0A9dMVI_lam1-51" style="edgeStyle=orthogonalEdgeStyle;rounded=0;orthogonalLoop=1;jettySize=auto;html=1;entryX=0;entryY=0.5;entryDx=0;entryDy=0;" edge="1" parent="1" source="Xr2quWgWzoAM4Jd-oPhX-43" target="G61eTxJS0A9dMVI_lam1-50">
          <mxGeometry relative="1" as="geometry" />
        </mxCell>
        <mxCell id="G61eTxJS0A9dMVI_lam1-56" style="edgeStyle=orthogonalEdgeStyle;rounded=0;orthogonalLoop=1;jettySize=auto;html=1;entryX=0;entryY=0.5;entryDx=0;entryDy=0;" edge="1" parent="1" source="Xr2quWgWzoAM4Jd-oPhX-43" target="G61eTxJS0A9dMVI_lam1-55">
          <mxGeometry relative="1" as="geometry" />
        </mxCell>
        <mxCell id="Xr2quWgWzoAM4Jd-oPhX-43" value="&lt;span&gt;&lt;font style=&quot;font-size: 14px; color: light-dark(rgb(255, 255, 255), rgb(0, 0, 0));&quot;&gt;FP1 : Commander et contrôler le procédé&lt;/font&gt;&lt;/span&gt;" style="rounded=1;whiteSpace=wrap;html=1;fillColor=#1ba1e2;fontColor=#ffffff;strokeColor=#006EAF;fontFamily=Helvetica;" parent="1" vertex="1">
          <mxGeometry x="110" y="270" width="150" height="60" as="geometry" />
        </mxCell>
        <mxCell id="Xr2quWgWzoAM4Jd-oPhX-50" value="&lt;h1&gt;&lt;br&gt;&lt;/h1&gt;" style="text;html=1;align=center;verticalAlign=middle;whiteSpace=wrap;rounded=0;fontFamily=Helvetica;" parent="1" vertex="1">
          <mxGeometry x="810" y="170" width="270" height="30" as="geometry" />
        </mxCell>
        <mxCell id="Xr2quWgWzoAM4Jd-oPhX-55" value="&lt;h1&gt;&lt;b&gt;Fonctions&lt;/b&gt;&lt;/h1&gt;" style="rounded=0;whiteSpace=wrap;html=1;fontFamily=Helvetica;" parent="1" vertex="1">
          <mxGeometry x="120" y="155" width="540" height="60" as="geometry" />
        </mxCell>
        <mxCell id="Xr2quWgWzoAM4Jd-oPhX-56" value="&lt;h1&gt;&lt;b&gt;Solution techniques&lt;/b&gt;&lt;/h1&gt;" style="rounded=0;whiteSpace=wrap;html=1;fontFamily=Helvetica;" parent="1" vertex="1">
          <mxGeometry x="771" y="155" width="339" height="60" as="geometry" />
        </mxCell>
        <mxCell id="Xr2quWgWzoAM4Jd-oPhX-60" value="Parametrage (GCODE)" style="rounded=1;whiteSpace=wrap;html=1;fontFamily=Helvetica;" parent="1" vertex="1">
          <mxGeometry x="880" y="1050" width="120" height="60" as="geometry" />
        </mxCell>
        <mxCell id="Xr2quWgWzoAM4Jd-oPhX-62" value="Parametrage (GCODE)" style="rounded=1;whiteSpace=wrap;html=1;fontFamily=Helvetica;" parent="1" vertex="1">
          <mxGeometry x="881.5" y="1130" width="120" height="60" as="geometry" />
        </mxCell>
        <mxCell id="Xr2quWgWzoAM4Jd-oPhX-64" value="Capteur de niveau" style="rounded=1;whiteSpace=wrap;html=1;fontFamily=Helvetica;" parent="1" vertex="1">
          <mxGeometry x="879.5" y="1400" width="120" height="60" as="geometry" />
        </mxCell>
        <mxCell id="Xr2quWgWzoAM4Jd-oPhX-66" value="Regulateur de temperature" style="rounded=1;whiteSpace=wrap;html=1;fontFamily=Helvetica;" parent="1" vertex="1">
          <mxGeometry x="885" y="495" width="120" height="60" as="geometry" />
        </mxCell>
        <mxCell id="Xr2quWgWzoAM4Jd-oPhX-68" value="Bras Robot" style="rounded=1;whiteSpace=wrap;html=1;fontFamily=Helvetica;" parent="1" vertex="1">
          <mxGeometry x="880" y="270" width="120" height="60" as="geometry" />
        </mxCell>
        <mxCell id="Xr2quWgWzoAM4Jd-oPhX-70" value="Réservoir central" style="rounded=1;whiteSpace=wrap;html=1;fontFamily=Helvetica;" parent="1" vertex="1">
          <mxGeometry x="879.5" y="1610" width="120" height="60" as="geometry" />
        </mxCell>
        <mxCell id="Xr2quWgWzoAM4Jd-oPhX-72" value="Pompe" style="rounded=1;whiteSpace=wrap;html=1;fontFamily=Helvetica;" parent="1" vertex="1">
          <mxGeometry x="879.5" y="1470" width="120" height="60" as="geometry" />
        </mxCell>
        <mxCell id="Xr2quWgWzoAM4Jd-oPhX-74" value="Contrôleur Rasperry pi" style="rounded=1;whiteSpace=wrap;html=1;fontFamily=Helvetica;" parent="1" vertex="1">
          <mxGeometry x="879.5" y="1540" width="120" height="60" as="geometry" />
        </mxCell>
        <mxCell id="Xr2quWgWzoAM4Jd-oPhX-79" style="edgeStyle=orthogonalEdgeStyle;rounded=0;orthogonalLoop=1;jettySize=auto;html=1;fontFamily=Helvetica;" parent="1" source="Xr2quWgWzoAM4Jd-oPhX-76" target="Xr2quWgWzoAM4Jd-oPhX-78" edge="1">
          <mxGeometry relative="1" as="geometry" />
        </mxCell>
        <mxCell id="Xr2quWgWzoAM4Jd-oPhX-81" style="edgeStyle=orthogonalEdgeStyle;rounded=0;orthogonalLoop=1;jettySize=auto;html=1;entryX=0;entryY=0.5;entryDx=0;entryDy=0;fontFamily=Helvetica;" parent="1" source="Xr2quWgWzoAM4Jd-oPhX-76" target="Xr2quWgWzoAM4Jd-oPhX-80" edge="1">
          <mxGeometry relative="1" as="geometry">
            <mxPoint x="881.5" y="1320" as="targetPoint" />
          </mxGeometry>
        </mxCell>
        <mxCell id="Xr2quWgWzoAM4Jd-oPhX-76" value="&lt;span style=&quot;font-size: 14px;&quot;&gt;Verifier la qualité de l&#39;encollage&lt;/span&gt;" style="rounded=1;whiteSpace=wrap;html=1;labelBackgroundColor=default;labelBorderColor=none;textShadow=0;fillColor=#dae8fc;strokeColor=#6c8ebf;fontFamily=Helvetica;" parent="1" vertex="1">
          <mxGeometry x="330.5" y="1210" width="179.5" height="60" as="geometry" />
        </mxCell>
        <mxCell id="Xr2quWgWzoAM4Jd-oPhX-78" value="Caméra haute résolution" style="rounded=1;whiteSpace=wrap;html=1;fontFamily=Helvetica;" parent="1" vertex="1">
          <mxGeometry x="880" y="1210" width="120" height="60" as="geometry" />
        </mxCell>
        <mxCell id="Xr2quWgWzoAM4Jd-oPhX-80" value="Éclairage LED" style="rounded=1;whiteSpace=wrap;html=1;fontFamily=Helvetica;" parent="1" vertex="1">
          <mxGeometry x="881.5" y="1290" width="120" height="60" as="geometry" />
        </mxCell>
        <mxCell id="Xr2quWgWzoAM4Jd-oPhX-85" value="Contrôleur Rasperry pi" style="rounded=1;whiteSpace=wrap;html=1;fontFamily=Helvetica;" parent="1" vertex="1">
          <mxGeometry x="880" y="340" width="120" height="60" as="geometry" />
        </mxCell>
        <mxCell id="G61eTxJS0A9dMVI_lam1-59" style="edgeStyle=orthogonalEdgeStyle;rounded=0;orthogonalLoop=1;jettySize=auto;html=1;entryX=0;entryY=0.5;entryDx=0;entryDy=0;" edge="1" parent="1" source="G61eTxJS0A9dMVI_lam1-1" target="G61eTxJS0A9dMVI_lam1-58">
          <mxGeometry relative="1" as="geometry" />
        </mxCell>
        <mxCell id="G61eTxJS0A9dMVI_lam1-1" value="&lt;span style=&quot;font-size: 14px;&quot;&gt;&lt;font style=&quot;color: rgb(255, 255, 255);&quot;&gt;FP2 : Alimenter en colle&lt;/font&gt;&lt;/span&gt;" style="rounded=1;whiteSpace=wrap;html=1;fillColor=#1ba1e2;fontColor=#ffffff;strokeColor=#006EAF;fontFamily=Helvetica;" vertex="1" parent="1">
          <mxGeometry x="110" y="1400" width="140" height="60" as="geometry" />
        </mxCell>
        <mxCell id="G61eTxJS0A9dMVI_lam1-30" style="edgeStyle=orthogonalEdgeStyle;rounded=0;orthogonalLoop=1;jettySize=auto;html=1;" edge="1" parent="1" source="G61eTxJS0A9dMVI_lam1-6" target="G61eTxJS0A9dMVI_lam1-9">
          <mxGeometry relative="1" as="geometry" />
        </mxCell>
        <mxCell id="G61eTxJS0A9dMVI_lam1-6" value="&lt;div&gt;&lt;font style=&quot;font-size: 14px;&quot;&gt;FC1&lt;/font&gt;&lt;span style=&quot;font-size: 14px; background-color: light-dark(#ffffff, var(--ge-dark-color, #121212)); color: light-dark(rgb(0, 0, 0), rgb(255, 255, 255));&quot;&gt;&amp;nbsp;: Communiquer avec le Raspberry&lt;/span&gt;&lt;/div&gt;" style="rounded=1;whiteSpace=wrap;html=1;labelBackgroundColor=default;labelBorderColor=none;textShadow=0;fillColor=#dae8fc;strokeColor=#6c8ebf;fontFamily=Helvetica;" vertex="1" parent="1">
          <mxGeometry x="330" y="420" width="200" height="60" as="geometry" />
        </mxCell>
        <mxCell id="G61eTxJS0A9dMVI_lam1-9" value="Cable ethernet RJ45" style="rounded=1;whiteSpace=wrap;html=1;" vertex="1" parent="1">
          <mxGeometry x="881.5" y="420" width="120" height="60" as="geometry" />
        </mxCell>
        <mxCell id="G61eTxJS0A9dMVI_lam1-31" style="edgeStyle=orthogonalEdgeStyle;rounded=0;orthogonalLoop=1;jettySize=auto;html=1;entryX=0;entryY=0.5;entryDx=0;entryDy=0;" edge="1" parent="1" source="G61eTxJS0A9dMVI_lam1-11" target="G61eTxJS0A9dMVI_lam1-13">
          <mxGeometry relative="1" as="geometry" />
        </mxCell>
        <mxCell id="G61eTxJS0A9dMVI_lam1-11" value="&lt;div&gt;&lt;font style=&quot;font-size: 14px;&quot;&gt;FC3 : Alimenter en énergie électrique&lt;/font&gt;&lt;/div&gt;" style="rounded=1;whiteSpace=wrap;html=1;labelBackgroundColor=default;labelBorderColor=none;textShadow=0;fillColor=#dae8fc;strokeColor=#6c8ebf;fontFamily=Helvetica;" vertex="1" parent="1">
          <mxGeometry x="330" y="570" width="200" height="60" as="geometry" />
        </mxCell>
        <mxCell id="G61eTxJS0A9dMVI_lam1-13" value="Réseau électrique alternatif" style="rounded=1;whiteSpace=wrap;html=1;" vertex="1" parent="1">
          <mxGeometry x="880" y="570" width="120" height="60" as="geometry" />
        </mxCell>
        <mxCell id="G61eTxJS0A9dMVI_lam1-22" style="edgeStyle=orthogonalEdgeStyle;rounded=0;orthogonalLoop=1;jettySize=auto;html=1;entryX=0;entryY=0.5;entryDx=0;entryDy=0;" edge="1" parent="1" source="G61eTxJS0A9dMVI_lam1-16" target="Xr2quWgWzoAM4Jd-oPhX-13">
          <mxGeometry relative="1" as="geometry" />
        </mxCell>
        <mxCell id="G61eTxJS0A9dMVI_lam1-23" style="edgeStyle=orthogonalEdgeStyle;rounded=0;orthogonalLoop=1;jettySize=auto;html=1;entryX=0;entryY=0.5;entryDx=0;entryDy=0;" edge="1" parent="1" source="G61eTxJS0A9dMVI_lam1-16" target="Xr2quWgWzoAM4Jd-oPhX-3">
          <mxGeometry relative="1" as="geometry" />
        </mxCell>
        <mxCell id="G61eTxJS0A9dMVI_lam1-16" value="&lt;font style=&quot;font-size: 14px;&quot;&gt;FC10 :&amp;nbsp;&lt;/font&gt;&lt;span style=&quot;font-size: 14px; background-color: light-dark(#ffffff, var(--ge-dark-color, #121212)); color: light-dark(rgb(0, 0, 0), rgb(255, 255, 255));&quot;&gt;Transférer les capots entre les différentes étapes&lt;/span&gt;" style="rounded=1;whiteSpace=wrap;html=1;labelBackgroundColor=default;labelBorderColor=none;textShadow=0;fillColor=#dae8fc;strokeColor=#6c8ebf;fontFamily=Helvetica;" vertex="1" parent="1">
          <mxGeometry x="329" y="270" width="181" height="60" as="geometry" />
        </mxCell>
        <mxCell id="G61eTxJS0A9dMVI_lam1-26" style="edgeStyle=orthogonalEdgeStyle;rounded=0;orthogonalLoop=1;jettySize=auto;html=1;" edge="1" parent="1" source="Xr2quWgWzoAM4Jd-oPhX-13" target="Xr2quWgWzoAM4Jd-oPhX-68">
          <mxGeometry relative="1" as="geometry" />
        </mxCell>
        <mxCell id="G61eTxJS0A9dMVI_lam1-29" style="edgeStyle=orthogonalEdgeStyle;rounded=0;orthogonalLoop=1;jettySize=auto;html=1;entryX=0;entryY=0.5;entryDx=0;entryDy=0;" edge="1" parent="1" source="Xr2quWgWzoAM4Jd-oPhX-13" target="Xr2quWgWzoAM4Jd-oPhX-85">
          <mxGeometry relative="1" as="geometry" />
        </mxCell>
        <mxCell id="Xr2quWgWzoAM4Jd-oPhX-13" value="&lt;font style=&quot;font-size: 14px;&quot;&gt;Positionner les capots&lt;/font&gt;" style="rounded=1;whiteSpace=wrap;html=1;labelBackgroundColor=default;labelBorderColor=none;textShadow=0;fillColor=#dae8fc;strokeColor=#6c8ebf;fontFamily=Helvetica;" parent="1" vertex="1">
          <mxGeometry x="570" y="270" width="130" height="60" as="geometry" />
        </mxCell>
        <mxCell id="G61eTxJS0A9dMVI_lam1-32" style="edgeStyle=orthogonalEdgeStyle;rounded=0;orthogonalLoop=1;jettySize=auto;html=1;exitX=0.5;exitY=1;exitDx=0;exitDy=0;entryX=0.568;entryY=0.939;entryDx=0;entryDy=0;entryPerimeter=0;" edge="1" parent="1" source="Xr2quWgWzoAM4Jd-oPhX-5" target="Xr2quWgWzoAM4Jd-oPhX-5">
          <mxGeometry relative="1" as="geometry" />
        </mxCell>
        <mxCell id="G61eTxJS0A9dMVI_lam1-41" style="edgeStyle=orthogonalEdgeStyle;rounded=0;orthogonalLoop=1;jettySize=auto;html=1;entryX=0;entryY=0.5;entryDx=0;entryDy=0;" edge="1" parent="1" source="G61eTxJS0A9dMVI_lam1-38" target="G61eTxJS0A9dMVI_lam1-40">
          <mxGeometry relative="1" as="geometry" />
        </mxCell>
        <mxCell id="G61eTxJS0A9dMVI_lam1-38" value="&lt;div&gt;&lt;font style=&quot;font-size: 14px;&quot;&gt;FC4 :&amp;nbsp;Supporter et assurer l’appui plan&amp;nbsp;&lt;/font&gt;&lt;/div&gt;" style="rounded=1;whiteSpace=wrap;html=1;labelBackgroundColor=default;labelBorderColor=none;textShadow=0;fillColor=#dae8fc;strokeColor=#6c8ebf;fontFamily=Helvetica;" vertex="1" parent="1">
          <mxGeometry x="330" y="650" width="200" height="60" as="geometry" />
        </mxCell>
        <mxCell id="G61eTxJS0A9dMVI_lam1-40" value="Support de l&#39;encolleuse stable (Planéité de base d&#39;appui)" style="rounded=1;whiteSpace=wrap;html=1;" vertex="1" parent="1">
          <mxGeometry x="885" y="650" width="120" height="60" as="geometry" />
        </mxCell>
        <mxCell id="G61eTxJS0A9dMVI_lam1-45" style="edgeStyle=orthogonalEdgeStyle;rounded=0;orthogonalLoop=1;jettySize=auto;html=1;entryX=0;entryY=0.5;entryDx=0;entryDy=0;" edge="1" parent="1" source="G61eTxJS0A9dMVI_lam1-42" target="G61eTxJS0A9dMVI_lam1-44">
          <mxGeometry relative="1" as="geometry" />
        </mxCell>
        <mxCell id="G61eTxJS0A9dMVI_lam1-42" value="&lt;div&gt;&lt;font style=&quot;font-size: 14px;&quot;&gt;FC5&lt;/font&gt;&lt;span style=&quot;font-size: 14px; background-color: light-dark(#ffffff, var(--ge-dark-color, #121212)); color: light-dark(rgb(0, 0, 0), rgb(255, 255, 255));&quot;&gt;&amp;nbsp;:&amp;nbsp;Respecter l’environnement&lt;/span&gt;&lt;/div&gt;" style="rounded=1;whiteSpace=wrap;html=1;labelBackgroundColor=default;labelBorderColor=none;textShadow=0;fillColor=#dae8fc;strokeColor=#6c8ebf;fontFamily=Helvetica;" vertex="1" parent="1">
          <mxGeometry x="329" y="730" width="200" height="60" as="geometry" />
        </mxCell>
        <mxCell id="G61eTxJS0A9dMVI_lam1-44" value="Prise en compte des régulations du pays" style="rounded=1;whiteSpace=wrap;html=1;" vertex="1" parent="1">
          <mxGeometry x="881.5" y="730" width="120" height="60" as="geometry" />
        </mxCell>
        <mxCell id="G61eTxJS0A9dMVI_lam1-49" style="edgeStyle=orthogonalEdgeStyle;rounded=0;orthogonalLoop=1;jettySize=auto;html=1;entryX=0;entryY=0.5;entryDx=0;entryDy=0;" edge="1" parent="1" source="G61eTxJS0A9dMVI_lam1-46" target="G61eTxJS0A9dMVI_lam1-48">
          <mxGeometry relative="1" as="geometry" />
        </mxCell>
        <mxCell id="G61eTxJS0A9dMVI_lam1-46" value="&lt;div&gt;&lt;font style=&quot;font-size: 14px;&quot;&gt;FC7&lt;/font&gt;&lt;span style=&quot;color: light-dark(rgb(0, 0, 0), rgb(255, 255, 255)); font-size: 14px; background-color: light-dark(#ffffff, var(--ge-dark-color, #121212));&quot;&gt;&amp;nbsp;:&amp;nbsp;&lt;/span&gt;&lt;span style=&quot;color: light-dark(rgb(0, 0, 0), rgb(255, 255, 255)); background-color: light-dark(#ffffff, var(--ge-dark-color, #121212)); font-size: 14px;&quot;&gt;Respecter les contraintes de production de l’usine du futur de Rouen&lt;/span&gt;&lt;/div&gt;" style="rounded=1;whiteSpace=wrap;html=1;labelBackgroundColor=default;labelBorderColor=none;textShadow=0;fillColor=#dae8fc;strokeColor=#6c8ebf;fontFamily=Helvetica;" vertex="1" parent="1">
          <mxGeometry x="329" y="810" width="200" height="60" as="geometry" />
        </mxCell>
        <mxCell id="G61eTxJS0A9dMVI_lam1-48" value="Liaison virtuel" style="rounded=1;whiteSpace=wrap;html=1;" vertex="1" parent="1">
          <mxGeometry x="880" y="810" width="120" height="60" as="geometry" />
        </mxCell>
        <mxCell id="G61eTxJS0A9dMVI_lam1-53" style="edgeStyle=orthogonalEdgeStyle;rounded=0;orthogonalLoop=1;jettySize=auto;html=1;entryX=0;entryY=0.5;entryDx=0;entryDy=0;" edge="1" parent="1" source="G61eTxJS0A9dMVI_lam1-50" target="G61eTxJS0A9dMVI_lam1-52">
          <mxGeometry relative="1" as="geometry" />
        </mxCell>
        <mxCell id="G61eTxJS0A9dMVI_lam1-50" value="&lt;div&gt;&lt;font style=&quot;font-size: 14px;&quot;&gt;FC8&lt;/font&gt;&lt;span style=&quot;font-size: 14px; background-color: light-dark(#ffffff, var(--ge-dark-color, #121212)); color: light-dark(rgb(0, 0, 0), rgb(255, 255, 255));&quot;&gt;&amp;nbsp;:&amp;nbsp;&lt;/span&gt;&lt;span style=&quot;background-color: light-dark(#ffffff, var(--ge-dark-color, #121212)); font-size: 14px;&quot;&gt;Commander manuellement l’encolleuse CR20&lt;/span&gt;&lt;/div&gt;" style="rounded=1;whiteSpace=wrap;html=1;labelBackgroundColor=default;labelBorderColor=none;textShadow=0;fillColor=#dae8fc;strokeColor=#6c8ebf;fontFamily=Helvetica;" vertex="1" parent="1">
          <mxGeometry x="329" y="890" width="200" height="60" as="geometry" />
        </mxCell>
        <mxCell id="G61eTxJS0A9dMVI_lam1-52" value="IHM permettant de commander les déplacement (X,Y,Z)" style="rounded=1;whiteSpace=wrap;html=1;fontFamily=Helvetica;" vertex="1" parent="1">
          <mxGeometry x="880" y="890" width="120" height="60" as="geometry" />
        </mxCell>
        <mxCell id="G61eTxJS0A9dMVI_lam1-57" style="edgeStyle=orthogonalEdgeStyle;rounded=0;orthogonalLoop=1;jettySize=auto;html=1;entryX=0;entryY=0.5;entryDx=0;entryDy=0;" edge="1" parent="1" source="G61eTxJS0A9dMVI_lam1-55" target="G61eTxJS0A9dMVI_lam1-13">
          <mxGeometry relative="1" as="geometry" />
        </mxCell>
        <mxCell id="G61eTxJS0A9dMVI_lam1-55" value="&lt;div&gt;&lt;font style=&quot;font-size: 14px;&quot;&gt;FC9&lt;/font&gt;&lt;span style=&quot;color: light-dark(rgb(0, 0, 0), rgb(255, 255, 255)); font-size: 14px; background-color: light-dark(#ffffff, var(--ge-dark-color, #121212));&quot;&gt;&amp;nbsp;:&amp;nbsp;&lt;/span&gt;&lt;span style=&quot;color: light-dark(rgb(0, 0, 0), rgb(255, 255, 255)); background-color: light-dark(#ffffff, var(--ge-dark-color, #121212)); font-size: 14px;&quot;&gt;Aucun arrêt de la ligne de production&lt;/span&gt;&lt;/div&gt;" style="rounded=1;whiteSpace=wrap;html=1;labelBackgroundColor=default;labelBorderColor=none;textShadow=0;fillColor=#dae8fc;strokeColor=#6c8ebf;fontFamily=Helvetica;" vertex="1" parent="1">
          <mxGeometry x="329" y="970" width="200" height="60" as="geometry" />
        </mxCell>
        <mxCell id="G61eTxJS0A9dMVI_lam1-60" style="edgeStyle=orthogonalEdgeStyle;rounded=0;orthogonalLoop=1;jettySize=auto;html=1;entryX=0;entryY=0.5;entryDx=0;entryDy=0;" edge="1" parent="1" source="G61eTxJS0A9dMVI_lam1-58" target="Xr2quWgWzoAM4Jd-oPhX-70">
          <mxGeometry relative="1" as="geometry" />
        </mxCell>
        <mxCell id="G61eTxJS0A9dMVI_lam1-62" style="edgeStyle=orthogonalEdgeStyle;rounded=0;orthogonalLoop=1;jettySize=auto;html=1;entryX=0;entryY=0.5;entryDx=0;entryDy=0;" edge="1" parent="1" source="G61eTxJS0A9dMVI_lam1-58" target="G61eTxJS0A9dMVI_lam1-61">
          <mxGeometry relative="1" as="geometry" />
        </mxCell>
        <mxCell id="G61eTxJS0A9dMVI_lam1-58" value="&lt;div&gt;&lt;font style=&quot;font-size: 14px;&quot;&gt;FC9&lt;/font&gt;&lt;span style=&quot;color: light-dark(rgb(0, 0, 0), rgb(255, 255, 255)); font-size: 14px; background-color: light-dark(#ffffff, var(--ge-dark-color, #121212));&quot;&gt;&amp;nbsp;:&amp;nbsp;&lt;/span&gt;&lt;span style=&quot;color: light-dark(rgb(0, 0, 0), rgb(255, 255, 255)); background-color: light-dark(#ffffff, var(--ge-dark-color, #121212)); font-size: 14px;&quot;&gt;Aucun arrêt de la ligne de production&lt;/span&gt;&lt;/div&gt;" style="rounded=1;whiteSpace=wrap;html=1;labelBackgroundColor=default;labelBorderColor=none;textShadow=0;fillColor=#dae8fc;strokeColor=#6c8ebf;fontFamily=Helvetica;" vertex="1" parent="1">
          <mxGeometry x="300" y="1610" width="200" height="60" as="geometry" />
        </mxCell>
        <mxCell id="G61eTxJS0A9dMVI_lam1-61" value="Réservoir individuel" style="rounded=1;whiteSpace=wrap;html=1;fontFamily=Helvetica;" vertex="1" parent="1">
          <mxGeometry x="879.5" y="1680" width="120" height="60" as="geometry" />
        </mxCell>
        <mxCell id="G61eTxJS0A9dMVI_lam1-64" value="" style="endArrow=none;html=1;rounded=0;dashed=1;" edge="1" parent="1">
          <mxGeometry width="50" height="50" relative="1" as="geometry">
            <mxPoint x="730" y="1745" as="sourcePoint" />
            <mxPoint x="730" y="155" as="targetPoint" />
          </mxGeometry>
        </mxCell>
      </root>
    </mxGraphModel>
  </diagram>
</mxfile>
